<?xml version="1.0" standalone="no"?>
<!DOCTYPE svg PUBLIC "-//W3C//DTD SVG 20010904//EN"
 "http://www.w3.org/TR/2001/REC-SVG-20010904/DTD/svg10.dtd">
<svg version="1.0" xmlns="http://www.w3.org/2000/svg"
 width="1000.000000pt" height="196.000000pt" viewBox="0 0 1000.000000 196.000000"
 preserveAspectRatio="xMidYMid meet">

<g transform="translate(0.000000,196.000000) scale(0.100000,-0.100000)"
fill="#000000" stroke="none">
<path d="M5361 1349 c-70 -13 -166 -63 -210 -109 -22 -23 -53 -67 -68 -98 -25
-51 -28 -68 -28 -157 0 -89 3 -107 29 -162 69 -149 232 -233 426 -220 127 9
250 68 310 150 54 74 72 139 68 247 -3 85 -7 102 -38 158 -53 100 -145 165
-268 191 -61 13 -157 13 -221 0z m254 -154 c155 -75 178 -278 47 -397 -53 -48
-101 -63 -197 -62 -66 0 -89 5 -131 27 -91 47 -134 116 -134 217 0 121 69 210
187 240 67 16 166 6 228 -25z"/>
<path d="M633 1338 c2 -7 75 -174 162 -370 l158 -358 74 0 74 0 30 68 c17 37
42 96 56 132 13 36 28 69 32 73 4 4 16 -14 26 -40 9 -26 35 -90 57 -141 l41
-93 74 3 75 3 159 360 c88 198 159 363 159 368 0 4 -35 7 -78 7 l-77 0 -98
-232 c-53 -128 -107 -261 -118 -296 -12 -35 -22 -62 -24 -60 -8 10 -115 273
-115 284 0 8 27 75 60 151 33 75 60 140 60 145 0 4 -33 8 -73 8 l-72 0 -24
-70 c-14 -39 -27 -67 -31 -63 -4 4 -17 36 -30 71 l-22 62 -74 0 c-41 0 -74 -2
-74 -5 0 -2 29 -70 65 -151 l64 -147 -38 -91 c-21 -50 -46 -115 -56 -144 -9
-29 -18 -52 -20 -50 -1 2 -53 124 -115 272 -61 148 -117 279 -122 292 -10 22
-17 24 -91 24 -59 0 -78 -3 -74 -12z"/>
<path d="M1940 980 l0 -370 315 0 315 0 0 65 0 65 -245 0 -245 0 0 105 0 105
215 0 215 0 0 60 0 60 -215 0 -215 0 0 75 0 75 240 0 240 0 0 65 0 65 -310 0
-310 0 0 -370z"/>
<path d="M2740 980 l0 -370 290 0 290 0 0 65 0 65 -215 0 -215 0 0 305 0 305
-75 0 -75 0 0 -370z"/>
<path d="M3470 980 l0 -370 290 0 290 0 0 65 0 65 -215 0 -215 0 0 305 0 305
-75 0 -75 0 0 -370z"/>
<path d="M4200 981 l0 -371 168 0 c276 0 368 25 468 124 76 76 99 135 98 251
0 174 -76 277 -246 336 -55 20 -89 23 -275 27 l-213 4 0 -371z m470 203 c43
-25 61 -42 83 -84 46 -88 35 -208 -25 -276 -57 -65 -96 -78 -245 -82 l-133 -4
0 242 0 242 133 -4 c126 -3 134 -4 187 -34z"/>
<path d="M6060 980 l0 -370 75 0 75 0 0 290 c0 160 2 290 4 290 2 0 107 -54
233 -119 l228 -120 3 -170 2 -171 75 0 75 0 0 370 0 370 -75 0 -75 0 0 -120
c0 -66 -2 -120 -4 -120 -2 0 -107 54 -232 120 l-229 120 -77 0 -78 0 0 -370z"/>
<path d="M7266 1298 c-13 -29 -90 -192 -170 -363 -80 -170 -146 -313 -146
-317 0 -4 33 -8 74 -8 l74 0 31 65 30 65 216 0 216 0 30 -65 29 -65 76 0 c69
0 75 2 69 19 -3 10 -82 176 -175 367 l-169 349 -81 3 -81 3 -23 -53z m184
-264 c41 -87 77 -161 78 -165 2 -5 -67 -9 -153 -9 -146 0 -157 1 -151 18 19
50 142 311 146 312 3 0 39 -70 80 -156z"/>
<path d="M7880 1285 l0 -65 135 0 135 0 0 -305 0 -305 75 0 75 0 0 305 0 305
135 0 135 0 0 65 0 65 -345 0 -345 0 0 -65z"/>
<path d="M8730 980 l0 -370 320 0 320 0 0 65 0 65 -245 0 -245 0 0 105 0 105
215 0 215 0 0 60 0 60 -215 0 -215 0 0 75 0 75 240 0 240 0 0 65 0 65 -315 0
-315 0 0 -370z"/>
</g>
</svg>
